# xmcd CD database file
#
# Track frame offsets:
#	150
#	8982
#	16554
#	28084
#	42487
#	57152
#	72995
#	85468
#	95933
#	110739
#	130062
#	143077
#
# Disc length: 2104 seconds
#
# Revision: 0
# Processed by: cddbd v1.5.2PL0 Copyright (c) Steve Scherf et al.
# Submitted via: CDex 1.79
#
DISCID=a508360c
DTITLE=FRANK SINATRA - Legends in music (Collection)
DYEAR=2007
DGENRE=Jazz
TTITLE0=Lilli Bolero
TTITLE1=S'wonderful
TTITLE2=Long ago and far away
TTITLE3=Day by day
TTITLE4=Fools rush in
TTITLE5=The one I love belongs to somebody else
TTITLE6=Saturday night (is the loneliest night of the week)
TTITLE7=Speak low
TTITLE8=Blue skies
TTITLE9=Stormy weather
TTITLE10=I couldn't sleep a wink last night
TTITLE11=Over the rainbow
EXTD=YEAR: 2007
EXTT0=
EXTT1=
EXTT2=
EXTT3=
EXTT4=
EXTT5=
EXTT6=
EXTT7=
EXTT8=
EXTT9=
EXTT10=
EXTT11=
PLAYORDER=
